<svg xmlns="http://www.w3.org/2000/svg" width="32" height="32">
    <path style="stroke:none;fill-rule:nonzero;fill:#000;fill-opacity:1" d="M31.11 4c.492 0 .89-.45.89-1V1c0-.55-.398-1-.89-1H.89C.399 0 0 .45 0 1v2c0 .55.398 1 .89 1h.887v24H.891C.398 28 0 28.45 0 29v2c0 .55.398 1 .89 1h13.333v-5c0-.55.398-1 .886-1h1.782c.488 0 .886.45.886 1v5H31.11c.493 0 .891-.45.891-1v-2c0-.55-.398-1-.89-1h-.887V4ZM14.222 6.8c0-.402.355-.8.71-.8h2.133c.356 0 .711.398.711.8v2.4c0 .402-.355.8-.71.8h-2.133c-.356 0-.711-.398-.711-.8Zm0 6c0-.402.355-.8.71-.8h2.133c.356 0 .711.398.711.8v2.4c0 .402-.355.8-.71.8h-2.133c-.356 0-.711-.398-.711-.8Zm-7.114-6c0-.402.356-.8.711-.8h2.137c.355 0 .711.398.711.8v2.4c0 .402-.355.8-.711.8H7.82c-.355 0-.71-.398-.71-.8ZM9.957 16H7.82c-.355 0-.71-.398-.71-.8v-2.4c0-.402.355-.8.71-.8h2.137c.355 0 .711.398.711.8v2.4c0 .402-.355.8-.711.8Zm.711 8c0-3.313 2.387-6 5.332-6s5.332 2.688 5.332 6Zm14.223-8.8c0 .402-.356.8-.711.8h-2.137c-.355 0-.711-.398-.711-.8v-2.4c0-.402.355-.8.711-.8h2.137c.355 0 .71.398.71.8Zm0-6c0 .402-.356.8-.711.8h-2.137c-.355 0-.711-.398-.711-.8V6.8c0-.402.355-.8.711-.8h2.137c.355 0 .71.398.71.8Zm0 0"/>
</svg>
