<svg xmlns="http://www.w3.org/2000/svg" width="32" height="32">
    <path style="stroke:none;fill-rule:nonzero;fill:#000;fill-opacity:1" d="M16 16a2.677 2.677 0 0 1-2.668-2.668A2.676 2.676 0 0 1 16 10.668c1.465 0 2.668 1.2 2.668 2.664A2.677 2.677 0 0 1 16 16Zm8-2.398c0-4.84-3.535-8.27-8-8.27s-8 3.43-8 8.27c0 3.117 2.602 7.25 8 12.183 5.398-4.933 8-9.066 8-12.183ZM16 2.668c5.602 0 10.668 4.293 10.668 10.934 0 4.425-3.563 9.664-10.668 15.73-7.105-6.066-10.668-11.305-10.668-15.73C5.332 6.96 10.398 2.668 16 2.668Zm0 0"/>
</svg>
